<svg width="24" height="24" viewBox="0 0 24 24" fill="none" xmlns="http://www.w3.org/2000/svg">
<path opacity="0.4" d="M20.94 8.29C21.02 9.78 21.02 14.23 20.94 15.71C20.87 17.15 20.54 18.43 19.49 19.48C18.44 20.54 17.16 20.87 15.72 20.93C14.23 21.01 9.78002 21.01 8.30002 20.93C6.86002 20.86 5.59003 20.53 4.53003 19.48C3.47003 18.43 3.14002 17.15 3.08002 15.71C3.00002 14.22 3.00002 9.77 3.08002 8.28C3.15002 6.84 3.48003 5.56 4.53003 4.51C5.58003 3.46 6.86002 3.13 8.30002 3.06C9.79002 2.98 14.24 2.98 15.72 3.06C17.16 3.13 18.44 3.46 19.49 4.51C20.55 5.56 20.88 6.84 20.94 8.28V8.29Z" fill="#2152FA"/>
<path d="M12 16.75C9.38 16.75 7.25 14.62 7.25 12C7.25 9.38 9.38 7.25 12 7.25C14.62 7.25 16.75 9.38 16.75 12C16.75 14.62 14.62 16.75 12 16.75ZM12 8.75C10.21 8.75 8.75 10.21 8.75 12C8.75 13.79 10.21 15.25 12 15.25C13.79 15.25 15.25 13.79 15.25 12C15.25 10.21 13.79 8.75 12 8.75ZM18.52 6.5C18.52 5.95 18.07 5.5 17.52 5.5C16.97 5.5 16.52 5.95 16.52 6.5C16.52 7.05 16.97 7.5 17.52 7.5C18.07 7.5 18.52 7.05 18.52 6.5Z" fill="#2152FA"/>
</svg>
