<svg width="24" height="24" viewBox="0 0 24 24" fill="none" xmlns="http://www.w3.org/2000/svg">
<path opacity="0.4" d="M7.03999 21H3.25V9.63001H7.03999V21ZM21 21H17.21V15.01C17.21 13.22 16.45 12.57 15.47 12.57C14.26 12.65 13.34 13.7 13.42 14.91C13.42 14.91 13.42 14.91 13.42 14.92C13.42 14.98 13.42 15.04 13.42 15.1V21H9.63V9.63001H13.29V11.27C14.04 10.13 15.33 9.46 16.7 9.5C18.66 9.5 20.94 10.59 20.94 14.12L20.99 20.99L21 21Z" fill="#2152FA"/>
<path d="M7.41995 5.21C7.41995 4.01 6.46996 3.04 5.26996 3C4.04996 2.97 3.02995 3.92999 2.99995 5.14999C2.96995 6.36999 3.92995 7.39 5.14995 7.42C6.38995 7.43 7.39995 6.45 7.41995 5.21Z" fill="#2152FA"/>
</svg>
