<svg width="120" height="28" viewBox="0 0 120 28" fill="none" xmlns="http://www.w3.org/2000/svg">
<path d="M39.2861 15.9061C39.708 17.4315 40.852 18.1942 42.7182 18.1942C43.919 18.1942 44.8277 17.7885 45.4444 16.9771L47.9759 18.4376C46.775 20.1739 45.0062 21.0421 42.6695 21.0421C40.6573 21.0421 39.0427 20.4336 37.8256 19.2165C36.6085 17.9995 36 16.466 36 14.616C36 12.7823 36.6004 11.2569 37.8013 10.0399C39.0021 8.80659 40.5437 8.18995 42.4261 8.18995C44.2111 8.18995 45.6797 8.80659 46.8318 10.0399C48.0002 11.2732 48.5844 12.7986 48.5844 14.616C48.5844 15.0217 48.5438 15.4517 48.4627 15.9061H39.2861ZM39.2374 13.472H45.4444C45.2659 12.6444 44.8927 12.0277 44.3247 11.6221C43.773 11.2164 43.1401 11.0135 42.4261 11.0135C41.5823 11.0135 40.8845 11.2326 40.3327 11.6707C39.781 12.0927 39.4159 12.6931 39.2374 13.472Z" fill="white"/>
<path d="M61.2675 20.7013H57.6163L53.1862 15.1759V20.7013H50.0462V3.66248H53.1862V13.8858L57.3729 8.53073H61.1215L56.2289 14.543L61.2675 20.7013Z" fill="white"/>
<path d="M71.5945 19.1922C70.3449 20.4255 68.8196 21.0421 67.0183 21.0421C65.2171 21.0421 63.6917 20.4255 62.4422 19.1922C61.2089 17.9427 60.5922 16.4173 60.5922 14.616C60.5922 12.8148 61.2089 11.2975 62.4422 10.0642C63.6917 8.81471 65.2171 8.18995 67.0183 8.18995C68.8196 8.18995 70.3449 8.81471 71.5945 10.0642C72.844 11.2975 73.4687 12.8148 73.4687 14.616C73.4687 16.4173 72.844 17.9427 71.5945 19.1922ZM64.6572 17.0258C65.2901 17.6587 66.0771 17.9751 67.0183 17.9751C67.9595 17.9751 68.7465 17.6587 69.3794 17.0258C70.0123 16.3929 70.3287 15.5897 70.3287 14.616C70.3287 13.6424 70.0123 12.8391 69.3794 12.2062C68.7465 11.5734 67.9595 11.2569 67.0183 11.2569C66.0771 11.2569 65.2901 11.5734 64.6572 12.2062C64.0406 12.8391 63.7322 13.6424 63.7322 14.616C63.7322 15.5897 64.0406 16.3929 64.6572 17.0258Z" fill="white"/>
<path d="M81.7143 8.18995C83.045 8.18995 84.1403 8.6362 85.0004 9.52872C85.8767 10.4212 86.3148 11.6545 86.3148 13.2286V20.7013H83.1748V13.618C83.1748 12.8067 82.9557 12.19 82.5176 11.7681C82.0794 11.33 81.4952 11.1109 80.765 11.1109C79.9536 11.1109 79.3045 11.3624 78.8177 11.8655C78.3309 12.3685 78.0875 13.1231 78.0875 14.1292V20.7013H74.9475V8.53073H78.0875V9.89383C78.8502 8.75791 80.0591 8.18995 81.7143 8.18995Z" fill="white"/>
<path d="M98.6351 19.1922C97.3856 20.4255 95.8602 21.0421 94.0589 21.0421C92.2577 21.0421 90.7323 20.4255 89.4828 19.1922C88.2495 17.9427 87.6328 16.4173 87.6328 14.616C87.6328 12.8148 88.2495 11.2975 89.4828 10.0642C90.7323 8.81471 92.2577 8.18995 94.0589 8.18995C95.8602 8.18995 97.3856 8.81471 98.6351 10.0642C99.8846 11.2975 100.509 12.8148 100.509 14.616C100.509 16.4173 99.8846 17.9427 98.6351 19.1922ZM91.6978 17.0258C92.3307 17.6587 93.1177 17.9751 94.0589 17.9751C95.0001 17.9751 95.7872 17.6587 96.42 17.0258C97.0529 16.3929 97.3693 15.5897 97.3693 14.616C97.3693 13.6424 97.0529 12.8391 96.42 12.2062C95.7872 11.5734 95.0001 11.2569 94.0589 11.2569C93.1177 11.2569 92.3307 11.5734 91.6978 12.2062C91.0812 12.8391 90.7729 13.6424 90.7729 14.616C90.7729 15.5897 91.0812 16.3929 91.6978 17.0258Z" fill="white"/>
<path d="M109.071 8.18995C110.71 8.18995 112.106 8.81471 113.258 10.0642C114.426 11.2975 115.011 12.8148 115.011 14.616C115.011 16.4173 114.426 17.9427 113.258 19.1922C112.106 20.4255 110.71 21.0421 109.071 21.0421C107.367 21.0421 106.053 20.4498 105.128 19.2652V20.7013H101.988V3.66248H105.128V9.96686C106.053 8.78225 107.367 8.18995 109.071 8.18995ZM106.077 17.0988C106.71 17.7317 107.514 18.0481 108.487 18.0481C109.461 18.0481 110.264 17.7317 110.897 17.0988C111.546 16.4497 111.871 15.6221 111.871 14.616C111.871 13.6099 111.546 12.7904 110.897 12.1576C110.264 11.5085 109.461 11.1839 108.487 11.1839C107.514 11.1839 106.71 11.5085 106.077 12.1576C105.445 12.7904 105.128 13.6099 105.128 14.616C105.128 15.6221 105.445 16.4497 106.077 17.0988Z" fill="white"/>
<path d="M118.053 7.07025C117.533 7.07025 117.079 6.88364 116.69 6.51041C116.316 6.12094 116.13 5.66658 116.13 5.1473C116.13 4.62802 116.316 4.17365 116.69 3.78419C117.079 3.39473 117.533 3.2 118.053 3.2C118.588 3.2 119.043 3.39473 119.416 3.78419C119.805 4.17365 120 4.62802 120 5.1473C120 5.66658 119.805 6.12094 119.416 6.51041C119.043 6.88364 118.588 7.07025 118.053 7.07025ZM116.495 20.7013V8.53073H119.635V20.7013H116.495Z" fill="white"/>
<path fill-rule="evenodd" clip-rule="evenodd" d="M9.33333 0C4.17868 0 0 4.17868 0 9.33333V18.6667C0 23.8213 4.17868 28 9.33333 28H18.6667C23.8213 28 28 23.8213 28 18.6667V9.33333C28 4.17868 23.8213 0 18.6667 0H9.33333ZM18.6667 18.6666C21.244 18.6666 23.3333 16.5773 23.3333 14C23.3333 11.4226 21.244 9.3333 18.6667 9.3333C16.0893 9.3333 14 11.4226 14 14C14 16.5773 16.0893 18.6666 18.6667 18.6666Z" fill="white"/>
</svg>
