<svg width="24" height="24" viewBox="0 0 24 24" fill="none" xmlns="http://www.w3.org/2000/svg">
<path opacity="0.4" d="M20 10.38C18.45 10.38 16.69 9.9 15.43 9V15.28C15.43 18.44 12.8701 21 9.71005 20.99C6.55005 20.99 3.99003 18.43 4.00003 15.27C4.00003 12.11 6.56 9.55 9.72 9.56C9.98 9.56 10.24 9.58 10.5 9.61V12.77C9.12003 12.34 7.64005 13.1 7.21005 14.49C6.78005 15.88 7.54002 17.35 8.93002 17.78C10.31 18.21 11.79 17.45 12.22 16.06C12.3 15.81 12.3401 15.54 12.3401 15.27V2.98H15.43C15.43 3.24 15.45 3.49999 15.5 3.75999C15.72 4.91999 16.4001 5.94 17.4001 6.58C18.1001 7.04 19.17 7.28999 20.01 7.28999V10.36L20 10.38Z" fill="#2152FA"/>
</svg>
