<svg width="24" height="24" viewBox="0 0 24 24" fill="none" xmlns="http://www.w3.org/2000/svg">
<path opacity="0.4" d="M19.94 7.99001C19.95 8.16001 19.95 8.34 19.95 8.52C19.95 13.86 15.83 20.01 8.28999 20.01C5.96999 20.01 3.81 19.35 2 18.2C2.33 18.24 2.65001 18.25 2.99001 18.25C4.91001 18.25 6.67 17.61 8.08 16.53C6.28 16.49 4.77 15.33 4.25 13.73C4.5 13.77 4.76 13.79 5.02 13.79C5.39 13.79 5.76001 13.74 6.10001 13.65C4.22001 13.27 2.81 11.65 2.81 9.69V9.64C3.36 9.94 3.99 10.13 4.66 10.15C3.56 9.41999 2.83 8.18999 2.83 6.78999C2.83 6.03999 3.03 5.35 3.39 4.75C5.41 7.2 8.44 8.8 11.84 8.98C11.78 8.68 11.74 8.37 11.74 8.06C11.74 5.83 13.57 4.02 15.84 4.02C17.02 4.02 18.09 4.50999 18.83 5.28999C19.76 5.11999 20.64 4.78001 21.43 4.32001C21.13 5.26001 20.48 6.04999 19.63 6.53999C20.45 6.44999 21.25 6.23 21.99 5.92C21.43 6.72 20.73 7.42999 19.93 8.00999L19.94 7.99001Z" fill="#2152FA"/>
</svg>
