<svg width="24" height="24" viewBox="0 0 24 24" fill="none" xmlns="http://www.w3.org/2000/svg">
<path opacity="0.4" d="M22 12.01C22 12.01 22 15.27 21.58 16.83C21.35 17.69 20.67 18.34 19.81 18.57C18.25 18.99 12 18.99 12 18.99C12 18.99 5.75 18.99 4.19 18.57C3.33 18.34 2.65001 17.69 2.42001 16.83C2.00001 15.27 2 12.01 2 12.01C2 12.01 2.00001 8.75 2.42001 7.19C2.65001 6.33 3.33 5.65 4.19 5.42C5.75 5 12 5 12 5C12 5 18.25 5 19.81 5.42C20.67 5.65 21.35 6.33 21.58 7.19C22 8.75 22 12.01 22 12.01Z" fill="#2152FA"/>
<path d="M10 15V9L15 12L10 15Z" fill="#2152FA"/>
</svg>
